# xmcd
#
# Track frame offsets:
#	150
#	15712
#	29590
#	38913
#	47679
#	64170
#	80264
#	94467
#	106901
#	120738
#	134836
#	143968
#
# Disc length: 2035 seconds
#
# Revision: 0
# Processed by: cddbd v1.5.2PL0 Copyright (c) Steve Scherf et al.
# Submitted via: EZCDAudioConverter 4.0.5.1
#
DISCID=ac07f10c
DTITLE=Julie Daraiche - Julie Daraiche chante les pionniers du country - CD 1
DYEAR=1900
DGENRE=Western
TTITLE0=Ma belle Gaspesie
TTITLE1=L'adieu du soldat
TTITLE2=Le grand jardin de l'amour
TTITLE3=Y mouillera pu pantoute
TTITLE4=Au loin la-bas dans ma prairie
TTITLE5=Hello Centrale
TTITLE6=La complainte des mineurs
TTITLE7=Mon enfant je te pardonne
TTITLE8=Vole colombe
TTITLE9=Sur ce vieux rocher blanc
TTITLE10=J'suis fauche (En rappel)
TTITLE11=Aimer, souffrir, pardonner, oublier
EXTD=
EXTT0=
EXTT1=
EXTT2=
EXTT3=
EXTT4=
EXTT5=
EXTT6=
EXTT7=
EXTT8=
EXTT9=
EXTT10=
EXTT11=
PLAYORDER=
